/* XPM */
static char *bc066b6d4f6048d1dffecbd5470a4f95rEM5pr8YKm4mepME[] = {
/* columns rows colors chars-per-pixel */
"64 64 218 2 ",
"   c #B4B32B",
".  c #B4B32A",
"X  c #B3B32A",
"o  c #B3B22A",
"O  c #B3B229",
"+  c #B2B127",
"@  c #B3B129",
"#  c #B2B228",
"$  c #B4B22E",
"%  c #BEB949",
"&  c #CAC56D",
"*  c #D5D08D",
"=  c #DDD8A2",
"-  c #DED9A4",
";  c #B3B228",
":  c #B5B230",
">  c #C8C268",
",  c #E3DDB3",
"<  c #F5F2E7",
"1  c #FDFCFA",
"2  c #FFFEFF",
"3  c white",
"4  c #BFB94C",
"5  c #E1DBB0",
"6  c #FBF8F4",
"7  c #FCFAF8",
"8  c #F1EDDB",
"9  c #E4DEB5",
"0  c #D8D395",
"q  c #D1CC81",
"w  c #D1CC7F",
"e  c #C7C064",
"r  c #F1ECD9",
"t  c #FBF9F5",
"y  c #E5DFB8",
"u  c #CAC56E",
"i  c #BAB63E",
"p  c #B4B22D",
"a  c #B3B128",
"s  c #F5F1E5",
"d  c #EFEAD6",
"f  c #CBC470",
"g  c #B5B331",
"h  c #F0EBD9",
"j  c #FEFDFE",
"k  c #E6DFBC",
"l  c #BDB848",
"z  c #E1DBAF",
"x  c #BAB53D",
"c  c #FAF8F4",
"v  c #EFEAD5",
"b  c #E2DCB2",
"n  c #F5F2E6",
"m  c #E4DEB8",
"M  c #FDFBFB",
"N  c #FCFBF9",
"B  c #F1EDDA",
"V  c #E3DEB5",
"C  c #B4B32D",
"Z  c #B8B736",
"A  c #B8B737",
"S  c #B8B738",
"D  c #B7B634",
"F  c #B6B533",
"G  c #B5B42F",
"H  c #BEBD49",
"J  c #C2C155",
"K  c #BFBE4C",
"L  c #B6B532",
"P  c #C0BF4F",
"I  c #EBEBCA",
"U  c #EDECCC",
"Y  c #ECEBC9",
"T  c #ECECCC",
"R  c #DDDC9F",
"E  c #B7B636",
"W  c #E3E3B3",
"Q  c #E8E7BF",
"!  c #BAB93E",
"~  c #BBBA42",
"^  c #E1E1AF",
"/  c #F0F0D9",
"(  c #EDEDD0",
")  c #EEEED4",
"_  c #EBEACA",
"`  c #C1C155",
"'  c #D4D388",
"]  c #EDEDCD",
"[  c #EFEFD2",
"{  c #ECECCB",
"}  c #EBEBC8",
"|  c #C6C663",
" . c #C3C259",
".. c #F7F7EB",
"X. c #D1D180",
"o. c #C4C35A",
"O. c #C5C45C",
"+. c #B4B32C",
"@. c #B2B128",
"#. c #C6C561",
"$. c #F5F5E6",
"%. c #F6F6EA",
"&. c #CDCC74",
"*. c #DCDCA0",
"=. c #F0EFD6",
"-. c #C4C45C",
";. c #BEBD4A",
":. c #CFCE7B",
">. c #C0BF50",
",. c #BDBC46",
"<. c #C5C45D",
"1. c #C4C359",
"2. c #D8D793",
"3. c #F7F6EA",
"4. c #CCCB71",
"5. c #C4C45A",
"6. c #C5C45B",
"7. c #B9B83C",
"8. c #F6F5E8",
"9. c #B1B023",
"0. c #B2B126",
"q. c #DEDEA5",
"w. c #E3E2B3",
"e. c #DDDDA3",
"r. c #E5E4B8",
"t. c #B5B42E",
"y. c #B5B431",
"u. c #EAEAC8",
"i. c #B1B024",
"p. c #CBCA70",
"a. c #F4F4E4",
"s. c #BCBB44",
"d. c #CCCB70",
"f. c #BEBD48",
"g. c #BAB93C",
"h. c #BBBB42",
"j. c #CBCA6F",
"k. c #C4C35C",
"l. c #F2F2DE",
"z. c #DFDFA8",
"x. c #F3F3DF",
"c. c #CCCC73",
"v. c #BDBC48",
"b. c #CCCB72",
"n. c #F9F9F1",
"m. c #F1F1D9",
"M. c #EDEDCE",
"N. c #EEEED1",
"B. c #D5D48C",
"V. c #CFCE7A",
"C. c #EFEFD6",
"Z. c #EBEAC9",
"A. c #D6D68F",
"S. c #E3E3B4",
"D. c #ECEBCC",
"F. c #D2D284",
"G. c #B6B634",
"H. c #F6F6E9",
"J. c #CBCA6E",
"K. c #BCBB43",
"L. c #BDBC45",
"P. c #B9B83A",
"I. c #B5B430",
"U. c #E7E6BE",
"Y. c #E2E2B1",
"T. c #BCBB42",
"R. c #BBBA40",
"E. c #DCDB9E",
"W. c #ECECCE",
"Q. c #B7B737",
"!. c #DFDFA9",
"~. c #F9F9F0",
"^. c #D5D48B",
"/. c #C3C257",
"(. c #C1C053",
"). c #F2F2DC",
"_. c #F1F1D8",
"`. c #C7C664",
"'. c #B2B125",
"]. c #D8D794",
"[. c #C1C052",
"{. c #BFBE4B",
"}. c #BFBF4D",
"|. c #E7E7BF",
" X c #BDBD49",
".X c #B6B534",
"XX c #E5E5BA",
"oX c #E8E7C0",
"OX c #F8F8EE",
"+X c #E4E4B5",
"@X c #DCDC9E",
"#X c #DDDCA0",
"$X c #DDDDA1",
"%X c #D5D489",
"&X c #EEEED3",
"*X c #D7D792",
"=X c #E0DFAC",
"-X c #E9E9C6",
";X c #DAD999",
":X c #D7D690",
">X c #F5F5E5",
",X c #CBCB71",
"<X c #BDBC47",
"1X c #BBBA41",
"2X c #D6D58B",
"3X c #D9D894",
"4X c #D9D995",
"5X c #D4D387",
"6X c #BDBD48",
"7X c #D4D386",
"8X c #D2D182",
"9X c #DEDDA4",
"0X c #E0E0AA",
"qX c #D9D997",
"wX c #C4C35B",
"eX c #BFBE4D",
"rX c #D3D284",
"tX c black",
/* pixels */
"                                                                                                                                ",
"                                                                                                                                ",
"                                                                                                                                ",
"                                . X X X X X X X X X X X X X X X X X X X X X X X X X X X X X X .                                 ",
"                          o O + + @ O O O O O O O O O O O O O O O O O O O O O O O O O O O O @ + + O o                           ",
"                      o # $ % & * = - - - - - - - - - - - - - - - - - - - - - - - - - - - - = * & % $ # o                       ",
"                  . ; : > , < 1 2 3 3 3 3 3 3 3 3 3 3 3 3 3 3 3 3 3 3 3 3 3 3 3 3 3 3 3 3 3 3 2 1 < , > : ; .                   ",
"                X ; 4 5 6 3 3 7 8 9 0 q w w w w w w w w w w w w w w w w w w w w w w w w q 0 9 8 7 3 3 6 5 4 ; X                 ",
"              X O e r 2 3 t y u i p a + + + + + + + + + + + + + + + + + + + + + + + + + + a p i u y t 3 2 r e O X               ",
"            . ; e s 3 2 d f g + O o .                                                     . o O + g f d 2 3 s e ; .             ",
"            ; 4 h 3 j k l + o                                                                     o + l k j 3 h 4 ;             ",
"          o : z 3 2 k x ;                                                                             ; x k 2 3 z : o           ",
"          # > c 3 v l ;                                                                                 ; l v 3 c > #           ",
"        o $ b 3 t f +                                                                                     + f t 3 b $ o         ",
"        O % n 3 m g o                                                                                     o g m 3 n % O         ",
"        + & M N u +                                                                                         + u N M & +         ",
"      . + * 3 B i O                                                                                         O i B 3 * + .       ",
"      X @ = 3 V p o                                                                                         o p V 3 = @ X       ",
"      X O - 3 0 a                                                                                             a 0 3 - O X       ",
"      X O - 3 q +                                                                                             + q 3 - O X       ",
"      X O - 3 w +                                                                                             + w 3 - O X       ",
"      X O - 3 w +                                                                                             + w 3 - O X       ",
"      X O - 3 w +                                                                                             + w 3 - O X       ",
"      X O - 3 w +                                                                                             + w 3 - O X       ",
"      X O - 3 w +                                                                                             + w 3 - O X       ",
"      X O - 3 w +               o o o o o o o o     o o o o         o O ; ; o o o o o o o o o o o             + w 3 - O X       ",
"      X O - 3 w +             o C Z A A A S D   o   o F D   o     O G H J K A   L S A A A A A A G o           + w 3 - O X       ",
"      X O - 3 w +             ; P I U Y Y T R G o o E W Q ! O   O ~ ^ / ( ) _ ` ' U Y ] [ { Y } | ;           + w 3 - O X       ",
"      X O - 3 w +             ;  ...X.o.O.O.P +.o @.#.$.%.&.+ o o *.=.-.! ;.:.>.,.<.1.2.3.4.5.6.7.o           + w 3 - O X       ",
"      X O - 3 w +             ;  .8.J 9.0.0.+ o o o q.w.e.r.t.o y.u.e.i.+ ; @.o O @.i.p.a.s.0.@.O             + w 3 - O X       ",
"      X O - 3 w +             ;  .%.d.,.f.H g.o O h./ j.k.l.>.;   z.x.c.v.F ; o     + b.a.,.O                 + w 3 - O X       ",
"      X O - 3 w +             ;  .n.m.M.M.N.B.o + V.C.7.L Z.A.; O v.S.$.a.D.F.G.o   + b.a.,.O                 + w 3 - O X       ",
"      X O - 3 w +             ;  .H.J.K.L.,.P.o I.U.Y.T.R.E.W.Q.o O G K J.!.~.^.O o + b.a.,.O                 + w 3 - O X       ",
"      X O - 3 w +             ;  .8./.0.O O o ; (.3.).] ] _.~.`.+ O o ; + +.S.u.y.o + b.a.,.O                 + w 3 - O X       ",
"      X O - 3 w +             ;  .8./.'.; ; O ; ].( [.{.{.}.|.z.C  X.X@.+ I.XXoXG o + b.a.,.O                 + w 3 - O X       ",
"      X O - 3 w +             ;  .OX+X@X#X$X%XK.&X*X0.; ; '.V.l.;.=X-X;X:XXX>X,XO o + b.a.<XO                 + w 3 - O X       ",
"      X O - 3 w +             O 1X2X3X3X3X4XX.,.5X6XO     O ! 7X<X;.8X9X0XqXwX+.o   O eXrXS o                 + w 3 - O X       ",
"      X O - 3 w +               o + + + + + ; o a O         o @.o O + O O ; ; o       O ; o                   + w 3 - O X       ",
"      X O - 3 w +                                                     o o .                                   + w 3 - O X       ",
"      X O - 3 w +                                                                                             + w 3 - O X       ",
"      X O - 3 w +                                                                                             + w 3 - O X       ",
"      X O - 3 w +                                                                                             + w 3 - O X       ",
"      X O - 3 w +                                                                                             + w 3 - O X       ",
"      X O - 3 w +                                                                                             + w 3 - O X       ",
"      X O - 3 q +                                                                                             + q 3 - O X       ",
"      X O - 3 0 a                                                                                             a 0 3 - O X       ",
"      X @ = 3 V p o                                                                                         o p V 3 = @ X       ",
"      . + * 3 B i O                                                                                         O i B 3 * + .       ",
"        + & M N u +                                                                                         + u N M & +         ",
"        O % n 3 m g o                                                                                     o g m 3 n % O         ",
"        o $ b 3 t f +                                                                                     + f t 3 b $ o         ",
"          # > c 3 v l ;                                                                                 ; l v 3 c > #           ",
"          o : z 3 2 k x ;                                                                             ; x k 2 3 z : o           ",
"            ; 4 h 3 j k l + o                                                                     o + l k j 3 h 4 ;             ",
"            . ; e s 3 2 d f g + O o .                                                     . o O + g f d 2 3 s e ; .             ",
"              X O e r 2 3 t y u i p a + + + + + + + + + + + + + + + + + + + + + + + + + + a p i u y t 3 2 r e O X               ",
"                X ; 4 5 6 3 3 7 8 9 0 q w w w w w w w w w w w w w w w w w w w w w w w w q 0 9 8 7 3 3 6 5 4 ; X                 ",
"                  . ; : > , < 1 2 3 3 3 3 3 3 3 3 3 3 3 3 3 3 3 3 3 3 3 3 3 3 3 3 3 3 3 3 3 3 2 1 < , > : ; .                   ",
"                      o # $ % & * = - - - - - - - - - - - - - - - - - - - - - - - - - - - - = * & % $ # o                       ",
"                          o O + + @ O O O O O O O O O O O O O O O O O O O O O O O O O O O O @ + + O o                           ",
"                                . X X X X X X X X X X X X X X X X X X X X X X X X X X X X X X .                                 ",
"                                                                                                                                ",
"                                                                                                                                ",
"                                                                                                                                "
};
