/* XPM */
static char *be8ce2385ea24e83f1c8fe31d634c62bz3YDPMzOmvXCAwdg[] = {
/* columns rows colors chars-per-pixel */
"64 64 93 2 ",
"   c #2E4E81",
".  c #2F5081",
"X  c #335384",
"o  c #395786",
"O  c #395887",
"+  c #3D5B8A",
"@  c #415E8B",
"#  c #45628E",
"$  c #48618D",
"%  c #476490",
"&  c #4A6691",
"*  c #4D6993",
"=  c #546B94",
"-  c #567098",
";  c #5B749B",
":  c #627A9F",
">  c #647CA1",
",  c #6E7FA1",
"<  c #6C83A5",
"1  c #7585A5",
"2  c #7887A7",
"3  c #7A89A7",
"4  c #7187A8",
"5  c #768AAB",
"6  c #7A8EAE",
"7  c #7E92B0",
"8  c #8796B2",
"9  c #8997B2",
"0  c #8799B6",
"q  c #899BB7",
"w  c #8C9DB8",
"e  c #8EA0BB",
"r  c #94A3BC",
"t  c #9DA7BE",
"y  c #98A7C0",
"u  c #9EADC4",
"i  c #A1AFC5",
"p  c #A3B2C7",
"a  c #ABB4C7",
"s  c #A6B4C8",
"d  c #AAB6CA",
"f  c #ACB9CC",
"g  c #B2BDCF",
"h  c #B9BDCD",
"j  c #B3BED0",
"k  c #BCC4D3",
"l  c #BFC9D7",
"z  c #C2C5D2",
"x  c #C3CBD9",
"c  c #CAD2DE",
"v  c #CBD3E0",
"b  c #CDD4E0",
"n  c #CFD7E2",
"m  c #D0D7E3",
"M  c #D1D8E3",
"N  c #D4DAE3",
"B  c #D2D9E4",
"V  c #D3DAE4",
"C  c #D5DBE5",
"Z  c #D6DBE5",
"A  c #DBDBE3",
"S  c #DCDCE3",
"D  c #D8DEE7",
"F  c #DFDFE5",
"G  c #DEE2EA",
"H  c #DFE3EA",
"J  c #E0E5EB",
"K  c #E1E5EB",
"L  c #E1E5EC",
"P  c #E3E7ED",
"I  c #E4E7ED",
"U  c #E4E8EE",
"Y  c #E5E9EF",
"T  c #E6EAEF",
"R  c #EAE8ED",
"E  c #EAE9EE",
"W  c #E7EAF0",
"Q  c #E7EBF0",
"!  c #E8EBF0",
"~  c #E9ECF1",
"^  c #EBEEF2",
"/  c #ECEFF3",
"(  c #EDEFF3",
")  c #F7F5F7",
"_  c #F7F6F7",
"`  c #F8F6F8",
"'  c #F7F8FA",
"]  c #FAF9FA",
"[  c #FBF9FA",
"{  c #FAFAFB",
"}  c #FCFBFB",
"|  c #FEFEFD",
" . c #FFFFFF",
/* pixels */
"X X X X X O X X X X X X X X X X X X X X X X X X X X X X X X X X X X X X X X X X X X X X X X X X X X X X X X X X X X X X X X X X ",
"X X X X X X X X X X X X X X O X X X X X X X X X X X X X X X X X X X X X X X X X X X X X X X X X X X X X X X X X X X X X X X X o ",
"X X X X X X X X X X X X X X X X X X X X X X X X X X X X X X X X X X X X X X X X X X X X X X X X X X X X X X X X X X X X X X X X ",
"X X X X X X X X X X X X X X X X X X X X X X X X X X X X X X X X X X X X X X X X X X X X X X X X X X X X X X X X X X X X X X X X ",
"X X X X X X X X X X X X X X . .   X   X   X X   X . X   X . X   X   X X X X . . X . X . X . X   X X X X X X X X X X X O X X X X ",
"X X O X X X X X X X X X . O = 5 r a a a a a a d a a a a a a a a a a a a a a a a a a a a a a a r 1 = X X X X X X X X X X X X X X ",
"X X X X X X X X X X X o 1 h ! {  . . . . . . . . . . . . . . . . . . . . . . . . . . . . . . . .} E h 1 o . X X X X X X X X X X ",
"X X X X X X X O X X = h )  . .{ S k t 9 8 8 0 0 9 9 8 8 9 9 8 8 9 8 9 8 8 8 8 9 8 8 9 8 8 t k H {  . .) h = X X X X X X X X o X ",
"X X X X X X X X   : J }  .) z 2 % O     . . . . . . . . . . . .     . . X X . . . . . . . . O # 3 z ) }  .J : X X X X X X X X X ",
"X X X X X X X X 1 R  . .S 3 o X X X X X X X X X X X X X X X X X X X X X X X X X X X X X X X X .   o 3 A }  .E , . X X X X X X X ",
"X X X X X X X = F  .} z =   X X X X X X X X X X X X X O X X X X X X X X X X X X X X X X X X X X X X X = z  . .F = . X X X X X X ",
"X X X X X X X h  . .z $   X X X X X X X X X X X X X X X X X X X X X X X X X X X X X X X X X X X X X X X $ z  . .k o X X X X X X ",
"X X X X X X 1 )  .A = X X X X X X X X X X X X X X X X X X X X X X X X X X X X X X X X X X X X X X X X X X = A  .) 1 . X X X X X ",
"X X X o X X h  .) 3 X X X X X X X X X X X X X X X X X X X X X O X X X X X X X X X X X X X X X X X X X X X . 2 `  .j O X X X X X ",
"X X X X   = R  .k o X X X X X X X O X X X X X X X X X X X X X O X X X X X O X X X X X X X X o X X X X X X X o z  .E = . X X X O ",
"X X X X X 2 } { 2 . X X X X X X X X X X X X X X X O X X X X X X X X X X X X X X X X o X X X X X X X X X X X   3 ` } 2 X X X X X ",
"X X X X X r  .S $ X X X X X X X X X O X X X X X X X X X X X X X X X X X X X X X X X X X X X X X X X X X X X X # J  .r .   X X X ",
"X X X X X a } k X X X X X X X X X X X X X X X X X O X X X X X X X X X X X X X X X X X X X X X X X X X X X X X X k  .a . X X X X ",
"X X X X X a  .t . X X X X X X O X X X X X X X X X X X X X X X X X X X X X X X X X X X X X X O X X X X X X X X . t  .a X X X X X ",
"X X X X X a  .9 X X X X X X X X X X X X X X X X X X X X X X X X X X X X X O X X O X O X X X X X X X X X X X X . 9  .a X X X X X ",
"X X X X . a  .8 . X X X X X X X X X X X X X X X X X X X X X X X X X X X X X X X X X X X X X X X X O X X X X X . 9  .a . X X X X ",
"X X X X X a  .8 . X X X X X X X X X X X X X X X X X X X X X X X X X X X X X X X X X X X X X X X X X X X X X X . 9  .a X X X X X ",
"X X X X   a  .9   X X X X X X X X X X X X X X O X X X X X O X X X X O X X X X X X X X X X X X X X X X X X X X . 8  .a . X X X X ",
"X X X X X a  .8 X X X X X X X X X X X X X X X X X X X X X X X X X X X X X X O X X X X X X X X X X X X X o X X X 8  .a X X X X X ",
"X X X X . a  .9   X X X X X X X X X X X X X X X X X X X X X X X X X X X X X X X X X X X X X X X X X X X X X X . 8  .a X X X X X ",
"X X X X X a  .8   X X X X X X X X X X X X X X . X . X X X X X X X X X X X X X X X . X X . X . . X X X X X X X . 8  .a X   X X X ",
"X X X X X a  .8 . X X @ o X X X O + X X X . + ; ; % X X X X O + @ @ O . X + + + @ + @ @ @ X + X X X . X + X X . 8  .a   X X X X ",
"X X X X X a  .8 . X > Z s X X . 7 f O X X 6 b M V V r O X X r M v v x 6 @ k v v M M v c k * k 7 X X X # x < .   9  .a X X X X X ",
"X X X X . a  .8 . . 5 { ( : . . t c O . 5 Q y & % 6 U y X . d M : < s / < - : : c c > > ; # Z r   X X # I 6 X X 9  .a . X X X X ",
"X X X X X a  .9 . . 5 I c k o . y v O + M f O . X . q Q - . d x X X @ U y . .   f k . . . + N r   X X # U 6     8  .a . X X X X ",
"X X X X . a  .8 . . 5 J 4 J <   y v O ; / 4   X X . - Q 6   d l X . - Q 7   X X k k X . X + M s * * = : U 6 . . 9  .a X X X X X ",
"X X X X . a  .9 . . 5 J # s x o e v O > ^ >   X X . % G w   d P u p M x % X . X g l X X X + M ^ b M M Z ' 6 . . 8  .a X X X X X ",
"X X X   X a  .8 . . 5 P % - G 4 w v O > / >   X   X # J 0   f U u f U u X X X . j l X . X + m p % * % > Q 6 . . 7  .a X X X X X ",
"X X X X   a  .8 . . 5 G % . u c i v O & Q w   X X . < ^ : X f x X . < P < . X X f l X X . + M y . . . % U 6 . . 0  .a X X X X X ",
"X X X X X a  .8 . . 5 P %   * Z P c O X d D -   . # x c + . f l O X X k x O X . j l X X X + M y . X X % U 6 . . 8  .a   X X X X ",
"X X X X X a  .8 . . 5 P % X   w  .v O X & l D u y v M : . X f l X X . > Q 4 . X j l X X X + M y . X . * U 6 . . 8  .a X X X X X ",
"X X X X X a  .8 . X - 0 + X X % w 7 X X X + 7 d d w & . X X < 6 X X X O 7 < X X 4 5 X X X O 7 > X X X + 0 - X . 8  .a . X X X X ",
"X X X X X a  .9 . X .   X X X X . X X X X X X . . . X X X X X . X X X X . . X X . X X X X X X X X X X X . X X . 8  .a X X X X X ",
"X X X X   a  .8 . X X X O X X X X X X X X X X X X X X X X X X X X X X X X X X X X X X X X X X X X X X X X X X . 8  .a X X X X X ",
"X X X X X d  .0 . X X X X X X X X X X X X X X X X X X X X O X X X X X X X X X X X X X X X X X X X X X X X X X X 8  .a   X X X X ",
"X X X X X a  .9 . X X X X X X X X X X X X X X X X X X X X X X X X X X X X X X X X X X X X O X X X X X X X X X   8  .a X X X X X ",
"X X X X X a  .8 . X O X X X X X X X X X X X X X O X X X X X X X X X X X X X X X X X O X X X X X X X X X X X X X 8  .a   X X X X ",
"X X X X X a  .8 . X X X X X X X X X X X X X X X X X X X X X X X X X X X X X X O X X X X X X X X X X X X X X X   8  .a X X X X X ",
"X X X X X a  .8 . X X X X X X X X X O X X X X X X X X X X X X X X X X X X X X X X X X X X X X X X X X X X X X X 9  .a X X X X X ",
"X X X X   a  .9   X X X X X X X X X X X O X X X X X X X X X X X X X X X X X X X X X X X X X X X X X X X X X X   9  .a . X X X X ",
"X X X X . a  .t   X X X X X X X O X X X X X X X X X X X X X X X X X X X X X X X X X X X X O X X X X X X X X X X t  .a . X X X X ",
"X X X     a  .k X X O X X X X X X X X X X X X X X X X X X O X X O X X X O X X X X X X X X X X X X X X X X X X X k  .a . X X X X ",
"X X X X X r  .F % X X X X X X X X X X X X X X X X X X X X X X X X X X X X X X X X X X X X X X X X X o X X X X # F  .r   X X X X ",
"X X X X X 1 { } 2   X X X X X X X X X X X X X X X X X X X o X X X X X X X X X X X X X X X X X X X X X X X X X 1 } } 2   X X X X ",
"X X X o   = E  .z o X X X X X X X X X X X X X X X X X X X X X X X X X X X X X X X X X X X X X X X X X X X X o z  .R =   X X X X ",
"X X X X X X h  .) 3   X X X X X X X X X o X X X o X X X X X X X X X X X X X X X X X X X X X X X X X X X X   3 )  .h X X X X X X ",
"X X X X X   1 )  .S = X X X X X X X X X X X X X X X X X X X X X X O X O X X X X X X X X X O X X X X o X . = S  .) 1 X X X X X X ",
"X X X X X X o h  . .z $ X X X X X X X X X X X X X X X X X X X X X X X X X X X X X X X X X X X X X X X   # z | | h o X X X X X X ",
"X X X X X X X = F  . .z =   X X X X X X X X X X X X X X X X X X X X X X X X X X X X X X X X X X X X X = z  .| K = X X X X X X X ",
"X X X X X X X X : E  . .A 3 o   X X X X X X X X X X X X X X X X X X X X X X X X X X X O X X X X   O 3 S  . .E : X X X X X X X X ",
"X X X X o X X X X 1 F  . .) z 5 $ X . .   X . . X . . . X . . . . . . . . . . . . . . X . . X $ 5 z )  . .S < X X X o X X X X X ",
"X X X X X X X X X . = h ) }  .[ S k t 9 9 8 8 8 8 8 9 9 8 8 8 9 q 8 9 8 8 8 8 8 8 9 8 8 9 t k S [  . .) h - . X X X X X X X X X ",
"X X X X X X X X X X X o 1 h R }  .}  . . . . . . . . . . . . . . . . . . . . . . . . . . . . . .| R h 1 O . X X X X X X X X X X ",
"X X X X X X X X X X X X X X = 1 r a a a a a a a a a a a a a a a a a a a a a a a a a a a a a a r 1 = X X X X X X X X X X X X X X ",
"X X X X O X O X X X X X X X . X . . X X X   X X   X . . X X   X X X X     X X X   X . X X X     . . X X X X X X X X X X X X X X ",
"X X X X X X X X X X X X X X X X X X X X X X X X X X X X X X X X X X X X X X X X X X X X X X X X X X X X X X X X X X X X O X X X ",
"X X X O X X X X X X X X X X X X X X X X X X X X X X X X X X X X X X X X X X X X X X X X X X X X X X X X X X X X X X X X X X X X ",
"X X X X X X O X X X X X X X X X X X X X X X X X X X X X X X X X X X X X X X X X X X X X X X X X X X X X X X X X X X X X O X X X ",
"X X X X X X X X X X X X X X X X X X X X X X X X X X X X X X X X X X X X X X X X X X X X X X X O X X X X X X O X X X X X X X X X "
};
