/* XPM */
static char *_28b6f237f504dac9f5720b574885b32hIwwYDtqsNETYVPv[] = {
/* columns rows colors chars-per-pixel */
"64 64 217 2 ",
"   c #6FC564",
".  c #6EC564",
"X  c #6EC563",
"o  c #6DC462",
"O  c #6CC461",
"+  c #6DC361",
"@  c #6EC462",
"#  c #71C465",
"$  c #85C878",
"%  c #9ED192",
"&  c #B3D9A9",
"*  c #C2DFB9",
"=  c #C3E0BB",
"-  c #73C467",
";  c #9BCE8E",
":  c #CDE2C4",
">  c #EFF4EB",
",  c #FCFCFB",
"<  c #FFFEFF",
"1  c white",
"2  c #87C87A",
"3  c #CBE1C2",
"4  c #F9F9F6",
"5  c #FBFBF9",
"6  c #E8F0E2",
"7  c #CEE4C6",
"8  c #B9DBAF",
"9  c #ABD6A0",
"0  c #A9D69F",
"q  c #98CC8B",
"w  c #E7EEE1",
"e  c #F9F9F7",
"r  c #D1E4C9",
"t  c #9FD093",
"y  c #7DC670",
"u  c #70C465",
"i  c #6CC361",
"p  c #EFF2EA",
"a  c #FFFEFE",
"s  c #E5EDDE",
"d  c #A0D093",
"f  c #6EC463",
"g  c #FEFDFE",
"h  c #D4E4CB",
"j  c #85C777",
"k  c #CBE0C2",
"l  c #7DC56F",
"z  c #F8F8F6",
"x  c #E4EDDE",
"c  c #EFF3EB",
"v  c #D1E4C8",
"b  c #9DD192",
"n  c #FBFBFA",
"m  c #9FD092",
"M  c #E7EFE2",
"N  c #C1DFB9",
"B  c #70C566",
"V  c #81CC78",
"C  c #8BD082",
"Z  c #86CE7D",
"A  c #78C86E",
"S  c #84CD7A",
"D  c #72C668",
"F  c #71C566",
"G  c #76C76B",
"H  c #70C565",
"J  c #72C667",
"K  c #75C76B",
"L  c #76C86C",
"P  c #77C86D",
"I  c #7AC970",
"U  c #C1E5BD",
"Y  c #E4F4E2",
"T  c #DEF1DC",
"R  c #E0F2DE",
"E  c #DDF0DA",
"W  c #92D28A",
"Q  c #81CC77",
"!  c #C6E7C2",
"~  c #E3F3E1",
"^  c #E2F3E0",
"/  c #CEEBCB",
"(  c #89CF80",
")  c #91D289",
"_  c #D3EDD0",
"`  c #7FCB76",
"'  c #6DC461",
"]  c #9DD796",
"[  c #CDEAC9",
"{  c #D0EBCC",
"}  c #DBF0D8",
"|  c #DAF0D8",
" . c #DFF2DD",
".. c #DAF0D7",
"X. c #DCF0D9",
"o. c #C3E6BF",
"O. c #81CB77",
"+. c #98D590",
"@. c #84CD7B",
"#. c #D4EDD1",
"$. c #8ACF82",
"%. c #B2DFAD",
"&. c #E8F5E6",
"*. c #95D48D",
"=. c #7CCA72",
"-. c #82CC78",
";. c #A1D99A",
":. c #8CD083",
">. c #79C86F",
",. c #D5EED2",
"<. c #90D287",
"1. c #7BCA72",
"2. c #E1F2DF",
"3. c #6BC360",
"4. c #9AD592",
"5. c #EDF7EC",
"6. c #A9DCA3",
"7. c #E6F4E5",
"8. c #80CB76",
"9. c #90D288",
"0. c #93D38A",
"q. c #8FD286",
"w. c #88CF7F",
"e. c #7FCB75",
"r. c #E9F5E7",
"t. c #A3D99C",
"y. c #8ACF81",
"u. c #EEF8ED",
"i. c #92D289",
"p. c #6FC565",
"a. c #CBE9C7",
"s. c #A5DA9F",
"d. c #7ECB74",
"f. c #E6F4E4",
"g. c #B7E1B2",
"h. c #E7F4E5",
"j. c #D7EED4",
"k. c #BFE4BA",
"l. c #7DCA73",
"z. c #A2D99B",
"x. c #6BC35F",
"c. c #6CC360",
"v. c #EEF7ED",
"b. c #B8E2B3",
"n. c #A4DA9D",
"m. c #83CD7A",
"M. c #CAE9C6",
"N. c #D5EDD2",
"B. c #99D592",
"V. c #BFE5BB",
"C. c #B0DEAA",
"Z. c #83CD79",
"A. c #9AD693",
"S. c #F0F8EF",
"D. c #C5E7C1",
"F. c #ECF7EB",
"G. c #DDF1DB",
"H. c #C7E8C2",
"J. c #B4E0AF",
"K. c #E5F4E3",
"L. c #99D591",
"P. c #E9F6E8",
"I. c #EBF6E9",
"U. c #DEF1DB",
"Y. c #F6FBF5",
"T. c #83CC79",
"R. c #BEE4B9",
"E. c #F3FAF2",
"W. c #B9E2B4",
"Q. c #D2ECCF",
"!. c #CCEAC8",
"~. c #E2F3DF",
"^. c #74C769",
"/. c #AEDEA8",
"(. c #C0E5BB",
"). c #E1F3DF",
"_. c #BAE2B5",
"`. c #71C667",
"'. c #D4EDD0",
"]. c #CCEAC9",
"[. c #94D38C",
"{. c #88CE7F",
"}. c #AFDEA9",
"|. c #76C76C",
" X c #C5E7C0",
".X c #DDF1DA",
"XX c #73C668",
"oX c #8CD084",
"OX c #9FD898",
"+X c #EFF8EE",
"@X c #9BD694",
"#X c #82CC79",
"$X c #EAF6E9",
"%X c #73C669",
"&X c #D1ECCE",
"*X c #BDE4B8",
"=X c #DAEFD7",
"-X c #BAE3B5",
";X c #B2DFAC",
":X c #A6DB9F",
">X c #A8DBA1",
",X c #CBE9C8",
"<X c #EAF6E8",
"1X c #B6E1B0",
"2X c #B3E0AD",
"3X c #C0E5BC",
"4X c #CFEBCC",
"5X c #E7F5E5",
"6X c #A6DBA0",
"7X c #BFE5BA",
"8X c #BAE2B4",
"9X c #93D38B",
"0X c #8DD185",
"qX c #BBE3B6",
"wX c #96D48E",
"eX c #ACDDA6",
"rX c black",
/* pixels */
"                                                                                                                                ",
"                                                                                                                                ",
"                                                                                                                                ",
"                                . X X X X X X X X X X X X X X X X X X X X X X X X X X X X X X .                                 ",
"                          X o O + @ @ @ @ @ @ @ @ @ @ @ @ @ @ @ @ @ @ @ @ @ @ @ @ @ @ @ @ @ @ + O o X                           ",
"                      X O # $ % & * = = = = = = = = = = = = = = = = = = = = = = = = = = = = * & % $ # O X                       ",
"                  . o - ; : > , < 1 1 < < < < < < < < < < < < < < < < < < < < < < < < < < 1 1 < , > : ; - o .                   ",
"                X o 2 3 4 1 1 5 6 7 8 9 0 0 0 0 0 0 0 0 0 0 0 0 0 0 0 0 0 0 0 0 0 0 0 0 9 8 7 6 5 1 1 4 3 2 o X                 ",
"              X @ q w < 1 e r t y u + i O O O O O O O O O O O O O O O O O O O O O O O O i + u y t r e 1 < w q @ X               ",
"            . o q p 1 a s d - O f X .                                                     . X f O - d s a 1 p q o .             ",
"            o 2 w 1 g h j O X                                                                     X O j h g 1 w 2 o             ",
"          X - k 1 < h l o                                                                             o l h < 1 k - X           ",
"          O ; z 1 x j o                                                                                 o j x 1 z ; O           ",
"        X # : 1 e d O                                                                                     O d e 1 : # X         ",
"        o $ c 1 v - X                                                                                     X - v 1 c $ o         ",
"        O b , n m O                                                                                         O m n , b O         ",
"      . + & 1 M y f                                                                                         f y M 1 & + .       ",
"      X @ N 1 7 u X                                                                                         X u 7 1 N @ X       ",
"      X @ = 1 8 + .                                                                                         . + 8 1 = @ X       ",
"      X @ = 1 9 i                                                                                             i 9 1 = @ X       ",
"      X @ = < 0 O                                                                                             O 0 < = @ X       ",
"      X @ = < 0 O                                                                                             O 0 < = @ X       ",
"      X @ = < 0 O                                                                                             O 0 < = @ X       ",
"      X @ = < 0 O                                                                                             O 0 < = @ X       ",
"      X @ = < 0 O                                                                                             O 0 < = @ X       ",
"      X @ = < 0 O     f o o o f f       f o o o f       f f f       f f f f f f f f f f f f f f       f f f   O 0 < = @ X       ",
"      X @ = < 0 O   f B V C Z A   f   o B V C S D o   f F G H f   f J K F L P P P P P P K H G J f   f H G F f O 0 < = @ X       ",
"      X @ = < 0 O f I U Y T R E W o o Q ! ~ T ^ / ( o o ) _ ` o   ' ] [ ( { } |  .T ..X.o.O.{ +.'   o @.#.$.o O 0 < = @ X       ",
"      X @ = < 0 O o %.&.*.=.-.;.:.O >.,.| <.1.( / 2.V 3.4.5.@.o   O 6.7.8.:.9.0.R / q.9.w.e.r.t.O   o y.u.i.O O 0 < = @ X       ",
"      X @ = < 0 i p./ a.3.O o O f O s.u.y.3.f O d.f.g.3.4.5.S o   O 6.h.I O O H j.k.3.' O l.r.z.x.o c.( v.) O O 0 < = @ X       ",
"      X @ = < 0 i o b.5.n.m.K o f   M.N.F f   f o o.| F B.5.S o   O 6.h.I f f J j.V.o X @ l.r.C.Q Z.V A.S.) O O 0 < = @ X       ",
"      X @ = < 0 O f l.D.F.F.G.C.P F j.H.f f     O J.K.G L.5.S o   O 6.h.I f f J j.V.o X @ l.P.I.G.U.G.Y Y.) O O 0 < = @ X       ",
"      X @ = < 0 O   f F T.B.R.E.W.F Q.!.  f     ' W.~.^.B.5.S o   O 6.h.I f f J j.V.o X @ l.r./.e.Q ` L.S.) O O 0 < = @ X       ",
"      X @ = < 0 O f o f o O o (.).K _.~ A @   f `.'.].f [.u.{.o   i }.~ A f f J j.V.o X @ l.r.z.3.o c.( v.) O O 0 < = @ X       ",
"      X @ = < 0 i   V |.o i H  X.XXXoX5.}.H i f OX+X@X3.#X$X6.O i %X&X[ B f f J j.V.o X @ l.r.t.O   o y.v.) O O 0 < = @ X       ",
"      X @ = < 0 i   *X=X-X;Xa.v.:X@   >X$X,X;X X<X1X`.f   2X$X3X;X4X5X) o   f J j.(.o X @ l.r.t.O   o y.u.i.O O 0 < = @ X       ",
"      X @ = < 0 O f Q 6X7XD.8X9XB f f   0Xg. XqX[.F f   f J B.R. X1X( f f   f H ;.wXf X f K 6.{.o   f =.eX` @ O 0 < = @ X       ",
"      X @ = < 0 O   o O o f o o f     f o o f o o f       f ' o f o o f       f o o       f ' f       f ' f   O 0 < = @ X       ",
"      X @ = < 0 O       f f X             X f X               f f X                                           O 0 < = @ X       ",
"      X @ = < 0 O                                                                                             O 0 < = @ X       ",
"      X @ = < 0 O                                                                                             O 0 < = @ X       ",
"      X @ = < 0 O                                                                                             O 0 < = @ X       ",
"      X @ = < 0 O                                                                                             O 0 < = @ X       ",
"      X @ = < 0 O                                                                                             O 0 < = @ X       ",
"      X @ = 1 9 i                                                                                             i 9 1 = @ X       ",
"      X @ = 1 8 + .                                                                                         . + 8 1 = @ X       ",
"      X @ N 1 7 u X                                                                                         X u 7 1 N @ X       ",
"      . + & 1 M y f                                                                                         f y M 1 & + .       ",
"        O b , n m O                                                                                         O m n , b O         ",
"        o $ c 1 v - X                                                                                     X - v 1 c $ o         ",
"        X # : 1 e d O                                                                                     O d e 1 : # X         ",
"          O ; z 1 x j o                                                                                 o j x 1 z ; O           ",
"          X - k 1 < h l o                                                                             o l h < 1 k - X           ",
"            o 2 w 1 g h j O X                                                                     X O j h g 1 w 2 o             ",
"            . o q p 1 a s d - O f X .                                                     . X f O - d s a 1 p q o .             ",
"              X @ q w < 1 e r t y u + i O O O O O O O O O O O O O O O O O O O O O O O O i + u y t r e 1 < w q @ X               ",
"                X o 2 3 4 1 1 5 6 7 8 9 0 0 0 0 0 0 0 0 0 0 0 0 0 0 0 0 0 0 0 0 0 0 0 0 9 8 7 6 5 1 1 4 3 2 o X                 ",
"                  . o - ; : > , < 1 1 < < < < < < < < < < < < < < < < < < < < < < < < < < 1 1 < , > : ; - o .                   ",
"                      X O # $ % & * = = = = = = = = = = = = = = = = = = = = = = = = = = = = * & % $ # O X                       ",
"                          X o O + @ @ @ @ @ @ @ @ @ @ @ @ @ @ @ @ @ @ @ @ @ @ @ @ @ @ @ @ @ @ + O o X                           ",
"                                . X X X X X X X X X X X X X X X X X X X X X X X X X X X X X X .                                 ",
"                                                                                                                                ",
"                                                                                                                                ",
"                                                                                                                                "
};
