/* XPM */
static char *_cb5e94f579e441ad4a348aa5ae4f71fCGz0OMPPWh3cqaac[] = {
/* columns rows colors chars-per-pixel */
"64 64 79 1 ",
"  c #B2001E",
". c #B30020",
"X c #B40826",
"o c #B60D2B",
"O c #B7122E",
"+ c #B91633",
"@ c #B91834",
"# c #BB1F3A",
"$ c #BD243E",
"% c #BD2640",
"& c #BE2A43",
"* c #C02F48",
"= c #C1334C",
"- c #C43B53",
"; c #C6465B",
": c #C84C61",
"> c #CA5266",
", c #CA5669",
"< c #CD596D",
"1 c #CD5E71",
"2 c #CF6375",
"3 c #D06477",
"4 c #D06779",
"5 c #D16B7C",
"6 c #D57586",
"7 c #D67A8A",
"8 c #D87F8F",
"9 c #D7808F",
"0 c #D88391",
"q c #DA8896",
"w c #DC8D9A",
"e c #DD919E",
"r c #DD93A0",
"t c #DE99A4",
"y c #E09BA7",
"u c #E09EA9",
"i c #E1A3AD",
"p c #E4A7B1",
"a c #E4AAB4",
"s c #E6B1BA",
"d c #E8B7BF",
"f c #E8B8BF",
"g c #E9BAC2",
"h c #E9BBC3",
"j c #EABEC5",
"k c #EBBEC6",
"l c #EBBFC7",
"z c #ECBFC7",
"x c #EBC0C7",
"c c #ECC3CA",
"v c #EBC4CA",
"b c #EDC4CC",
"n c #EDC6CD",
"m c #ECC8CD",
"M c #EDC9CE",
"N c #EFCAD0",
"B c #EECBD1",
"V c #EFCFD4",
"C c #EFD3D7",
"Z c #F0D2D7",
"A c #F0D3D7",
"S c #F1D4D9",
"D c #F1D5D9",
"F c #F2D7DB",
"G c #F2D8DC",
"H c #F2DBDE",
"J c #F3DCE0",
"K c #F4DFE2",
"L c #F4E0E3",
"P c #F5E3E5",
"I c #F5E3E6",
"U c #F7EAEC",
"Y c #F9EDEF",
"T c #FBF3F4",
"R c #FBF4F5",
"E c #FCF7F8",
"W c #FDFAFA",
"Q c #FDFAFB",
"! c #FEFEFD",
/* pixels */
".......... .................................................... ",
"................................................................",
"................................................................",
"................. .  . .. . .. .  .. .  . .. . .................",
"........... .             .   .    .   ..           ............",
"...........  X$>7rerrrrrrrrrrrrrrrrrrrrrrrrrrre7>$X  ...........",
". .......  X:iPW!!!!!!!!!!!!!!!!!!!!!!!!!!!!!!!!WPp:X  .........",
"........  &iE!!ESp0534444444444444444444444450aSR!!Ri&  ........",
"......   ;S!!Ta,@.                            .@>aE!!S;  .......",
"......  ;P!!Z,X  ...  .. . . . .... ..      . .  X,V!!P;  ......",
"...... &S!!s$  .... .... ... ...... ............ . $s!!S& ......",
"......Xi!!s@ ...................................... @s!!iX .....",
"....  :R!V$  ....................................... $C!E; .....",
".... Xi!E, .................... ........... ......... ,T!iX ....",
". .. $P!aX .......................................... Xa!P$ ....",
".... >WW> ............................................ >WW> ....",
"...  6!S@ ............................................ @S!7  ...",
".... e!a. ............................ ........... .. ..a!e  ...",
".... r!0  ............................................  0!r  ...",
"...  r!5 .............................................  4!r.....",
".....r!4   ...........................................  4!r  ...",
".... r!4 .............................................  4!r ....",
"... .r!4  ............... ............................. 4!r  ...",
".... r!4 ........ ..................................... 4!r ....",
"...  r!4 ...........  ...... .........................  4!r ....",
"...  r!4 ....  ... .  .. ..    .  ...   . .  .... .. .  4!r ....",
".... r!4 ... .o. ..Xo   XX.XoOOOoX. X$=&O.XOoOoooOX ..  4!r  ...",
"... .r!4 ... Xt6 .XipO  4uX,Nxjfc2 @tZbCc-4cjcNcjz: ..  4!r.....",
"...  r!4  ... egX &HL*  su 5L;---$ 9S;+$1=#--6U<--+ ... 4!r  ...",
".... r!4  ..  <J$ ,fd2 @S4 5SO     du        :P&    ... 4!r ....",
"...  r!4   .. &L: qq7e ;I= 5H=$$$o wL<$o     ;P& ...... 4!r  ...",
".....r!4  ... oc0Xf>;go7BO 5Wmmmm; $iLLv6O   >P& ...... 4!r ....",
".....r!4 ...   ed*m$$M=pi  5H=#$$o  X%>rY8   :P&  ..... 4!r ....",
"...  r!4 ...   ,S6foXs7S4  5ZO          ybo  :K*  ..... 4!r ....",
".... r!4  .. . =HSw  8SJ*  5ZO    .$o  XpjX. >I% ....   4!r  ...",
".... r!4  .... ox!,  ;WNO  4Uywww<Xrjq7pP1   ;I* .....  4!r. ...",
"...  r!4  .... .;7@  @6>   =78070>.%4etq-X . =5+  ....  4!r.....",
".... r!4  ......    .     .               ..    ......  4!r ....",
"...  r!4 .........X ............ ....   ....  ......... 4!r  ...",
".... r!4 .......... ..................  ..... ......... 4!r  ...",
".... r!4   ....................................... ...  4!r ....",
"...  r!4 .............................................  4!r ....",
".....r!4  ............ ................................ 4!r  ...",
"...  r!4 .................. ..........................  4!r.....",
"...  r!5  ............................................. 5!r  ...",
".... r!0 .................................... ........  0!r ....",
"...  e!a............................... .............. Xp!e  ...",
"...  7!S@ . .......................................... @S!6 ....",
".... >WW> ............................................ ,WW> ....",
".... $P!pX .......................................... Xa!P%  ...",
".....Xi!R,  ......................................... ,E!i......",
"....  :T!C$ ............. ............. ............ $V!T: .....",
"..... Xi!!s@  ............................ .......  @s!!iX .....",
"...... &S!!s$ ..  ......... ... .................  $a!!S& ......",
"......  ;P!!S,X     ..... . . .   ..  .   ... .  X,S!!P;  ......",
"........ ;Z!!Ra,+X                            .@>aE!!S;. .......",
"......... &iT!!WSp0534444444444444444444444450pSW!!Eu*  ........",
".........  X:iPW!!!!!!!!!!!!!!!!!!!!!!!!!!!!!!!!WPi;X  .........",
"............ X%>7errrrrrrrrrrrrrrrrrrrrrrrrrrre7>%X  ...........",
"............        .    .   .   .     ..   .      .............",
"... ........ ...  . ..  . .. . .. . .. .  . ..   ...............",
"................................................................",
"............................................................. ..",
"......... ......................................................"
};
